<mxfile host="app.diagrams.net" agent="Mozilla/5.0 (Windows NT 10.0; Win64; x64) AppleWebKit/537.36 (KHTML, like Gecko) Chrome/137.0.0.0 Safari/537.36" version="26.2.10">
  <diagram name="第 1 页" id="ymwS_IY8MIXRyYueqAV2">
    <mxGraphModel dx="985" dy="525" grid="1" gridSize="10" guides="1" tooltips="1" connect="1" arrows="1" fold="1" page="1" pageScale="1" pageWidth="1169" pageHeight="827" math="0" shadow="0">
      <root>
        <mxCell id="0" />
        <mxCell id="1" parent="0" />
        <mxCell id="F3Z2k89PkYjlrjDhpoIZ-32" value="优化模块" style="text;html=1;align=center;verticalAlign=middle;whiteSpace=wrap;rounded=0;fontFamily=Times New Roman;fontSize=14;" parent="1" vertex="1">
          <mxGeometry x="204" y="644" width="40" height="30" as="geometry" />
        </mxCell>
        <mxCell id="F3Z2k89PkYjlrjDhpoIZ-33" value="求解模块" style="text;html=1;align=center;verticalAlign=middle;whiteSpace=wrap;rounded=0;fontFamily=Times New Roman;fontSize=14;" parent="1" vertex="1">
          <mxGeometry x="204" y="357" width="40" height="30" as="geometry" />
        </mxCell>
        <mxCell id="F3Z2k89PkYjlrjDhpoIZ-35" value="Material&lt;div&gt;Modular&lt;/div&gt;" style="text;html=1;align=center;verticalAlign=middle;whiteSpace=wrap;rounded=0;fontFamily=Times New Roman;fontSize=14;" parent="1" vertex="1">
          <mxGeometry x="205" y="235" width="40" height="30" as="geometry" />
        </mxCell>
        <mxCell id="F3Z2k89PkYjlrjDhpoIZ-38" value="FEALPy 仿真应用层" style="rounded=0;whiteSpace=wrap;html=1;fontFamily=Times New Roman;fontSize=14;fontStyle=1;dashed=1;strokeColor=none;" parent="1" vertex="1">
          <mxGeometry x="120" y="118" width="600" height="40" as="geometry" />
        </mxCell>
        <mxCell id="F3Z2k89PkYjlrjDhpoIZ-39" value="" style="shape=flexArrow;endArrow=classic;html=1;rounded=0;entryX=0.5;entryY=1;entryDx=0;entryDy=0;endWidth=11.904761904761905;endSize=5.585714285714285;width=8.095238095238095;fontFamily=Times New Roman;startSize=6;fontSize=11;" parent="1" edge="1">
          <mxGeometry width="50" height="50" relative="1" as="geometry">
            <mxPoint x="399" y="198" as="sourcePoint" />
            <mxPoint x="399" y="160" as="targetPoint" />
          </mxGeometry>
        </mxCell>
        <mxCell id="SHF09hgEC6lpMV5m1Q11-1" value="" style="shape=curlyBracket;whiteSpace=wrap;html=1;rounded=1;labelPosition=left;verticalLabelPosition=middle;align=right;verticalAlign=middle;" parent="1" vertex="1">
          <mxGeometry x="179" y="250" width="20" height="410" as="geometry" />
        </mxCell>
        <mxCell id="SHF09hgEC6lpMV5m1Q11-2" value="SOPTX" style="text;html=1;align=center;verticalAlign=middle;resizable=0;points=[];autosize=1;strokeColor=none;fillColor=none;fontFamily=Times New Roman;fontStyle=1;fontSize=14;" parent="1" vertex="1">
          <mxGeometry x="116" y="440" width="70" height="30" as="geometry" />
        </mxCell>
        <mxCell id="QV9En6UjGn9VhWlDcuHC-3" value="滤波模块" style="text;html=1;align=center;verticalAlign=middle;whiteSpace=wrap;rounded=0;fontFamily=Times New Roman;fontSize=14;" parent="1" vertex="1">
          <mxGeometry x="203" y="476" width="40" height="30" as="geometry" />
        </mxCell>
        <mxCell id="QV9En6UjGn9VhWlDcuHC-32" value="" style="rounded=0;whiteSpace=wrap;html=1;fontFamily=Times New Roman;dashed=1;" parent="1" vertex="1">
          <mxGeometry x="300" y="440" width="210" height="50" as="geometry" />
        </mxCell>
        <mxCell id="QV9En6UjGn9VhWlDcuHC-33" value="&lt;span style=&quot;font-size: 10px;&quot;&gt;灵敏度滤波&lt;/span&gt;" style="rounded=1;whiteSpace=wrap;html=1;fillColor=#fff2cc;strokeColor=#d6b656;align=center;verticalAlign=middle;fontFamily=Times New Roman;fontSize=12;fontColor=default;" parent="1" vertex="1">
          <mxGeometry x="310" y="445" width="40" height="40" as="geometry" />
        </mxCell>
        <mxCell id="QV9En6UjGn9VhWlDcuHC-37" value="&lt;span style=&quot;font-size: 10px;&quot;&gt;密度&lt;/span&gt;&lt;div&gt;&lt;span style=&quot;font-size: 10px;&quot;&gt;滤波&lt;/span&gt;&lt;/div&gt;" style="rounded=1;whiteSpace=wrap;html=1;fillColor=#fff2cc;strokeColor=#d6b656;align=center;verticalAlign=middle;fontFamily=Times New Roman;fontSize=12;fontColor=default;" parent="1" vertex="1">
          <mxGeometry x="360" y="445" width="40" height="40" as="geometry" />
        </mxCell>
        <mxCell id="QV9En6UjGn9VhWlDcuHC-38" value="&lt;span style=&quot;font-size: 10px;&quot;&gt;Heaviside 滤波&lt;/span&gt;" style="rounded=1;whiteSpace=wrap;html=1;fillColor=#fff2cc;strokeColor=#d6b656;align=center;verticalAlign=middle;fontFamily=Times New Roman;fontSize=12;fontColor=default;" parent="1" vertex="1">
          <mxGeometry x="411" y="445" width="40" height="40" as="geometry" />
        </mxCell>
        <mxCell id="QV9En6UjGn9VhWlDcuHC-43" value="&lt;span style=&quot;font-size: 10px;&quot;&gt;...&lt;/span&gt;" style="rounded=1;whiteSpace=wrap;html=1;fillColor=#fff2cc;strokeColor=#d6b656;align=center;verticalAlign=middle;fontFamily=Times New Roman;fontSize=12;fontColor=default;" parent="1" vertex="1">
          <mxGeometry x="460" y="445" width="40" height="40" as="geometry" />
        </mxCell>
        <mxCell id="QV9En6UjGn9VhWlDcuHC-46" value="" style="shape=curlyBracket;whiteSpace=wrap;html=1;rounded=1;labelPosition=left;verticalLabelPosition=middle;align=right;verticalAlign=middle;" parent="1" vertex="1">
          <mxGeometry x="238" y="617" width="20" height="81" as="geometry" />
        </mxCell>
        <mxCell id="QV9En6UjGn9VhWlDcuHC-47" value="&lt;span style=&quot;font-size: 12px;&quot;&gt;优化&lt;/span&gt;&lt;div&gt;&lt;span style=&quot;font-size: 12px;&quot;&gt;问题&lt;/span&gt;&lt;/div&gt;" style="text;html=1;align=center;verticalAlign=middle;whiteSpace=wrap;rounded=0;fontFamily=Times New Roman;fontSize=14;" parent="1" vertex="1">
          <mxGeometry x="258" y="601" width="40" height="30" as="geometry" />
        </mxCell>
        <mxCell id="QV9En6UjGn9VhWlDcuHC-48" value="&lt;span style=&quot;font-size: 12px;&quot;&gt;优化&lt;/span&gt;&lt;div&gt;&lt;span style=&quot;font-size: 12px;&quot;&gt;算法&lt;/span&gt;&lt;/div&gt;" style="text;html=1;align=center;verticalAlign=middle;whiteSpace=wrap;rounded=0;fontFamily=Times New Roman;fontSize=14;" parent="1" vertex="1">
          <mxGeometry x="258" y="685" width="40" height="30" as="geometry" />
        </mxCell>
        <mxCell id="QV9En6UjGn9VhWlDcuHC-56" value="" style="shape=curlyBracket;whiteSpace=wrap;html=1;rounded=1;labelPosition=left;verticalLabelPosition=middle;align=right;verticalAlign=middle;" parent="1" vertex="1">
          <mxGeometry x="295" y="585.5" width="20" height="55" as="geometry" />
        </mxCell>
        <mxCell id="QV9En6UjGn9VhWlDcuHC-57" value="&lt;span style=&quot;font-size: 12px;&quot;&gt;目标&lt;/span&gt;&lt;div&gt;&lt;span style=&quot;font-size: 12px;&quot;&gt;函数&lt;/span&gt;&lt;/div&gt;" style="text;html=1;align=center;verticalAlign=middle;whiteSpace=wrap;rounded=0;fontFamily=Times New Roman;fontSize=14;" parent="1" vertex="1">
          <mxGeometry x="314" y="571" width="40" height="30" as="geometry" />
        </mxCell>
        <mxCell id="QV9En6UjGn9VhWlDcuHC-58" value="&lt;span style=&quot;font-size: 12px;&quot;&gt;约束&lt;/span&gt;&lt;div&gt;&lt;span style=&quot;font-size: 12px;&quot;&gt;函数&lt;/span&gt;&lt;/div&gt;" style="text;html=1;align=center;verticalAlign=middle;whiteSpace=wrap;rounded=0;fontFamily=Times New Roman;fontSize=14;" parent="1" vertex="1">
          <mxGeometry x="314" y="625.5" width="40" height="30" as="geometry" />
        </mxCell>
        <mxCell id="QV9En6UjGn9VhWlDcuHC-59" value="" style="rounded=0;whiteSpace=wrap;html=1;fontFamily=Times New Roman;dashed=1;" parent="1" vertex="1">
          <mxGeometry x="355" y="561" width="210" height="50" as="geometry" />
        </mxCell>
        <mxCell id="QV9En6UjGn9VhWlDcuHC-60" value="&lt;span style=&quot;font-size: 10px;&quot;&gt;柔顺度最小化&lt;/span&gt;" style="rounded=1;whiteSpace=wrap;html=1;fillColor=#dae8fc;strokeColor=#6c8ebf;align=center;verticalAlign=middle;fontFamily=Times New Roman;fontSize=12;fontColor=default;" parent="1" vertex="1">
          <mxGeometry x="365" y="566" width="40" height="40" as="geometry" />
        </mxCell>
        <mxCell id="QV9En6UjGn9VhWlDcuHC-61" value="&lt;span style=&quot;font-size: 10px;&quot;&gt;热传导&lt;/span&gt;" style="rounded=1;whiteSpace=wrap;html=1;fillColor=#dae8fc;strokeColor=#6c8ebf;align=center;verticalAlign=middle;fontFamily=Times New Roman;fontSize=12;fontColor=default;dashed=1;" parent="1" vertex="1">
          <mxGeometry x="415" y="566" width="40" height="40" as="geometry" />
        </mxCell>
        <mxCell id="QV9En6UjGn9VhWlDcuHC-63" value="" style="rounded=0;whiteSpace=wrap;html=1;fontFamily=Times New Roman;dashed=1;" parent="1" vertex="1">
          <mxGeometry x="355" y="611" width="210" height="50" as="geometry" />
        </mxCell>
        <mxCell id="QV9En6UjGn9VhWlDcuHC-64" value="&lt;span style=&quot;font-size: 10px;&quot;&gt;体积&lt;/span&gt;&lt;div&gt;&lt;span style=&quot;font-size: 10px;&quot;&gt;约束&lt;/span&gt;&lt;/div&gt;" style="rounded=1;whiteSpace=wrap;html=1;fillColor=#dae8fc;strokeColor=#6c8ebf;align=center;verticalAlign=middle;fontFamily=Times New Roman;fontSize=12;fontColor=default;" parent="1" vertex="1">
          <mxGeometry x="365" y="616" width="40" height="40" as="geometry" />
        </mxCell>
        <mxCell id="QV9En6UjGn9VhWlDcuHC-65" value="&lt;span style=&quot;font-size: 10px;&quot;&gt;应力&lt;/span&gt;&lt;div&gt;&lt;span style=&quot;font-size: 10px;&quot;&gt;约束&lt;/span&gt;&lt;/div&gt;" style="rounded=1;whiteSpace=wrap;html=1;fillColor=#dae8fc;strokeColor=#6c8ebf;align=center;dashed=1;verticalAlign=middle;fontFamily=Times New Roman;fontSize=12;fontColor=default;" parent="1" vertex="1">
          <mxGeometry x="415" y="616" width="40" height="40" as="geometry" />
        </mxCell>
        <mxCell id="QV9En6UjGn9VhWlDcuHC-66" value="&lt;span style=&quot;font-size: 10px;&quot;&gt;...&lt;/span&gt;" style="rounded=1;whiteSpace=wrap;html=1;fillColor=#dae8fc;strokeColor=#6c8ebf;align=center;dashed=1;verticalAlign=middle;fontFamily=Times New Roman;fontSize=12;fontColor=default;" parent="1" vertex="1">
          <mxGeometry x="465" y="616" width="40" height="40" as="geometry" />
        </mxCell>
        <mxCell id="QV9En6UjGn9VhWlDcuHC-67" value="&lt;span style=&quot;font-size: 10px;&quot;&gt;...&lt;/span&gt;" style="rounded=1;whiteSpace=wrap;html=1;fillColor=#dae8fc;strokeColor=#6c8ebf;align=center;verticalAlign=middle;fontFamily=Times New Roman;fontSize=12;fontColor=default;dashed=1;" parent="1" vertex="1">
          <mxGeometry x="467" y="566" width="40" height="40" as="geometry" />
        </mxCell>
        <mxCell id="cAgsl87A5W_VfvOpg8Ob-4" value="" style="rounded=0;whiteSpace=wrap;html=1;fontFamily=Times New Roman;dashed=1;" parent="1" vertex="1">
          <mxGeometry x="301" y="675" width="210" height="50" as="geometry" />
        </mxCell>
        <mxCell id="cAgsl87A5W_VfvOpg8Ob-5" value="&lt;span style=&quot;font-size: 10px;&quot;&gt;OC&lt;/span&gt;" style="rounded=1;whiteSpace=wrap;html=1;fillColor=#dae8fc;strokeColor=#6c8ebf;align=center;verticalAlign=middle;fontFamily=Times New Roman;fontSize=12;fontColor=default;" parent="1" vertex="1">
          <mxGeometry x="312" y="680" width="40" height="40" as="geometry" />
        </mxCell>
        <mxCell id="cAgsl87A5W_VfvOpg8Ob-6" value="&lt;span style=&quot;font-size: 10px;&quot;&gt;MMA&lt;/span&gt;" style="rounded=1;whiteSpace=wrap;html=1;fillColor=#dae8fc;strokeColor=#6c8ebf;align=center;verticalAlign=middle;fontFamily=Times New Roman;fontSize=12;fontColor=default;" parent="1" vertex="1">
          <mxGeometry x="362" y="680" width="40" height="40" as="geometry" />
        </mxCell>
        <mxCell id="cAgsl87A5W_VfvOpg8Ob-11" value="&lt;span style=&quot;font-size: 10px;&quot;&gt;...&lt;/span&gt;" style="rounded=1;whiteSpace=wrap;html=1;fillColor=#dae8fc;strokeColor=#6c8ebf;align=center;verticalAlign=middle;fontFamily=Times New Roman;fontSize=12;fontColor=default;dashed=1;" parent="1" vertex="1">
          <mxGeometry x="414" y="680" width="40" height="40" as="geometry" />
        </mxCell>
        <mxCell id="WzBGASRhdgCEX8o0v8tj-3" value="&lt;span style=&quot;font-size: 12px;&quot;&gt;基础&lt;/span&gt;&lt;br&gt;&lt;div&gt;&lt;span style=&quot;font-size: 12px;&quot;&gt;滤波&lt;/span&gt;&lt;/div&gt;" style="text;html=1;align=center;verticalAlign=middle;whiteSpace=wrap;rounded=0;fontFamily=Times New Roman;fontSize=14;" parent="1" vertex="1">
          <mxGeometry x="259" y="450" width="40" height="30" as="geometry" />
        </mxCell>
        <mxCell id="WzBGASRhdgCEX8o0v8tj-5" value="" style="group" parent="1" vertex="1" connectable="0">
          <mxGeometry x="266" y="199.5" width="270" height="99" as="geometry" />
        </mxCell>
        <mxCell id="F3Z2k89PkYjlrjDhpoIZ-31" value="" style="rounded=0;whiteSpace=wrap;html=1;fontFamily=Times New Roman;dashed=1;" parent="WzBGASRhdgCEX8o0v8tj-5" vertex="1">
          <mxGeometry x="60" width="210" height="50" as="geometry" />
        </mxCell>
        <mxCell id="F3Z2k89PkYjlrjDhpoIZ-23" value="&lt;span style=&quot;font-size: 10px;&quot;&gt;线弹性材料&lt;/span&gt;" style="rounded=1;whiteSpace=wrap;html=1;fillColor=#d5e8d4;strokeColor=#82b366;align=center;" parent="WzBGASRhdgCEX8o0v8tj-5" vertex="1">
          <mxGeometry x="54" y="4" width="40" height="40" as="geometry" />
        </mxCell>
        <mxCell id="QV9En6UjGn9VhWlDcuHC-4" value="" style="shape=curlyBracket;whiteSpace=wrap;html=1;rounded=1;labelPosition=left;verticalLabelPosition=middle;align=right;verticalAlign=middle;" parent="WzBGASRhdgCEX8o0v8tj-5" vertex="1">
          <mxGeometry x="-16" y="19.5" width="20" height="60" as="geometry" />
        </mxCell>
        <mxCell id="QV9En6UjGn9VhWlDcuHC-5" value="&lt;font style=&quot;font-size: 12px;&quot;&gt;材料&lt;/font&gt;&lt;div&gt;&lt;font style=&quot;font-size: 12px;&quot;&gt;属性&lt;/font&gt;&lt;/div&gt;" style="text;html=1;align=center;verticalAlign=middle;whiteSpace=wrap;rounded=0;fontFamily=Times New Roman;fontSize=14;" parent="WzBGASRhdgCEX8o0v8tj-5" vertex="1">
          <mxGeometry x="4" y="9" width="40" height="30" as="geometry" />
        </mxCell>
        <mxCell id="QV9En6UjGn9VhWlDcuHC-6" value="&lt;span style=&quot;font-size: 12px;&quot;&gt;插值&lt;/span&gt;&lt;div&gt;&lt;span style=&quot;font-size: 12px;&quot;&gt;模型&lt;/span&gt;&lt;/div&gt;" style="text;html=1;align=center;verticalAlign=middle;whiteSpace=wrap;rounded=0;fontFamily=Times New Roman;fontSize=14;" parent="WzBGASRhdgCEX8o0v8tj-5" vertex="1">
          <mxGeometry x="4" y="59" width="40" height="30" as="geometry" />
        </mxCell>
        <mxCell id="QV9En6UjGn9VhWlDcuHC-11" value="&lt;span style=&quot;font-size: 10px;&quot;&gt;超弹性材料&lt;/span&gt;" style="rounded=1;whiteSpace=wrap;html=1;fillColor=#d5e8d4;strokeColor=#82b366;align=center;dashed=1;" parent="WzBGASRhdgCEX8o0v8tj-5" vertex="1">
          <mxGeometry x="104" y="4" width="40" height="40" as="geometry" />
        </mxCell>
        <mxCell id="QV9En6UjGn9VhWlDcuHC-12" value="&lt;span style=&quot;font-size: 10px;&quot;&gt;弹塑性材料&lt;/span&gt;" style="rounded=1;whiteSpace=wrap;html=1;fillColor=#d5e8d4;strokeColor=#82b366;align=center;dashed=1;" parent="WzBGASRhdgCEX8o0v8tj-5" vertex="1">
          <mxGeometry x="154" y="4" width="40" height="40" as="geometry" />
        </mxCell>
        <mxCell id="QV9En6UjGn9VhWlDcuHC-13" value="&lt;span style=&quot;font-size: 10px;&quot;&gt;...&lt;/span&gt;" style="rounded=1;whiteSpace=wrap;html=1;fillColor=#d5e8d4;strokeColor=#82b366;align=center;dashed=1;" parent="WzBGASRhdgCEX8o0v8tj-5" vertex="1">
          <mxGeometry x="204" y="4" width="40" height="40" as="geometry" />
        </mxCell>
        <mxCell id="QV9En6UjGn9VhWlDcuHC-15" value="" style="rounded=0;whiteSpace=wrap;html=1;fontFamily=Times New Roman;dashed=1;fillColor=default;" parent="WzBGASRhdgCEX8o0v8tj-5" vertex="1">
          <mxGeometry x="60" y="49" width="210" height="50" as="geometry" />
        </mxCell>
        <mxCell id="QV9En6UjGn9VhWlDcuHC-16" value="&lt;span style=&quot;font-size: 10px;&quot;&gt;SIMP&lt;/span&gt;" style="rounded=1;whiteSpace=wrap;html=1;fillColor=#d5e8d4;strokeColor=#82b366;align=center;" parent="WzBGASRhdgCEX8o0v8tj-5" vertex="1">
          <mxGeometry x="54" y="54" width="40" height="40" as="geometry" />
        </mxCell>
        <mxCell id="QV9En6UjGn9VhWlDcuHC-17" value="&lt;span style=&quot;font-size: 10px;&quot;&gt;RAMP&lt;/span&gt;" style="rounded=1;whiteSpace=wrap;html=1;fillColor=#d5e8d4;strokeColor=#82b366;align=center;dashed=1;" parent="WzBGASRhdgCEX8o0v8tj-5" vertex="1">
          <mxGeometry x="104" y="54" width="40" height="40" as="geometry" />
        </mxCell>
        <mxCell id="QV9En6UjGn9VhWlDcuHC-19" value="&lt;span style=&quot;font-size: 10px;&quot;&gt;...&lt;/span&gt;" style="rounded=1;whiteSpace=wrap;html=1;fillColor=#d5e8d4;strokeColor=#82b366;align=center;dashed=1;" parent="WzBGASRhdgCEX8o0v8tj-5" vertex="1">
          <mxGeometry x="154" y="54" width="40" height="40" as="geometry" />
        </mxCell>
        <mxCell id="WzBGASRhdgCEX8o0v8tj-6" value="" style="group" parent="1" vertex="1" connectable="0">
          <mxGeometry x="238" y="319" width="272" height="100" as="geometry" />
        </mxCell>
        <mxCell id="QV9En6UjGn9VhWlDcuHC-20" value="" style="rounded=0;whiteSpace=wrap;html=1;fontFamily=Times New Roman;dashed=1;" parent="WzBGASRhdgCEX8o0v8tj-6" vertex="1">
          <mxGeometry x="62" width="210" height="50" as="geometry" />
        </mxCell>
        <mxCell id="QV9En6UjGn9VhWlDcuHC-21" value="&lt;span style=&quot;font-size: 10px;&quot;&gt;位移&lt;/span&gt;" style="rounded=1;whiteSpace=wrap;html=1;fillColor=#f8cecc;strokeColor=#b85450;align=center;verticalAlign=middle;fontFamily=Times New Roman;fontSize=12;fontColor=default;" parent="WzBGASRhdgCEX8o0v8tj-6" vertex="1">
          <mxGeometry x="72" y="5" width="40" height="40" as="geometry" />
        </mxCell>
        <mxCell id="QV9En6UjGn9VhWlDcuHC-22" value="" style="shape=curlyBracket;whiteSpace=wrap;html=1;rounded=1;labelPosition=left;verticalLabelPosition=middle;align=right;verticalAlign=middle;" parent="WzBGASRhdgCEX8o0v8tj-6" vertex="1">
          <mxGeometry y="25" width="20" height="55" as="geometry" />
        </mxCell>
        <mxCell id="QV9En6UjGn9VhWlDcuHC-23" value="&lt;span style=&quot;font-size: 12px;&quot;&gt;物理场&lt;/span&gt;" style="text;html=1;align=center;verticalAlign=middle;whiteSpace=wrap;rounded=0;fontFamily=Times New Roman;fontSize=14;" parent="WzBGASRhdgCEX8o0v8tj-6" vertex="1">
          <mxGeometry x="21" y="10" width="40" height="30" as="geometry" />
        </mxCell>
        <mxCell id="QV9En6UjGn9VhWlDcuHC-24" value="&lt;span style=&quot;font-size: 12px;&quot;&gt;数值&lt;/span&gt;&lt;div&gt;&lt;span style=&quot;font-size: 12px;&quot;&gt;方法&lt;/span&gt;&lt;/div&gt;" style="text;html=1;align=center;verticalAlign=middle;whiteSpace=wrap;rounded=0;fontFamily=Times New Roman;fontSize=14;" parent="WzBGASRhdgCEX8o0v8tj-6" vertex="1">
          <mxGeometry x="20" y="60" width="40" height="30" as="geometry" />
        </mxCell>
        <mxCell id="QV9En6UjGn9VhWlDcuHC-25" value="&lt;span style=&quot;font-size: 10px;&quot;&gt;应力&lt;/span&gt;" style="rounded=1;whiteSpace=wrap;html=1;fillColor=#f8cecc;strokeColor=#b85450;align=center;dashed=1;verticalAlign=middle;fontFamily=Times New Roman;fontSize=12;fontColor=default;" parent="WzBGASRhdgCEX8o0v8tj-6" vertex="1">
          <mxGeometry x="122" y="5" width="40" height="40" as="geometry" />
        </mxCell>
        <mxCell id="QV9En6UjGn9VhWlDcuHC-27" value="&lt;span style=&quot;font-size: 10px;&quot;&gt;...&lt;/span&gt;" style="rounded=1;whiteSpace=wrap;html=1;fillColor=#f8cecc;strokeColor=#b85450;align=center;dashed=1;verticalAlign=middle;fontFamily=Times New Roman;fontSize=12;fontColor=default;" parent="WzBGASRhdgCEX8o0v8tj-6" vertex="1">
          <mxGeometry x="173" y="5" width="40" height="40" as="geometry" />
        </mxCell>
        <mxCell id="QV9En6UjGn9VhWlDcuHC-28" value="" style="rounded=0;whiteSpace=wrap;html=1;fontFamily=Times New Roman;dashed=1;" parent="WzBGASRhdgCEX8o0v8tj-6" vertex="1">
          <mxGeometry x="62" y="50" width="210" height="50" as="geometry" />
        </mxCell>
        <mxCell id="QV9En6UjGn9VhWlDcuHC-29" value="&lt;span style=&quot;font-size: 10px;&quot;&gt;FEM&lt;/span&gt;" style="rounded=1;whiteSpace=wrap;html=1;fillColor=#f8cecc;strokeColor=#b85450;align=center;verticalAlign=middle;fontFamily=Times New Roman;fontSize=12;fontColor=default;" parent="WzBGASRhdgCEX8o0v8tj-6" vertex="1">
          <mxGeometry x="72" y="55" width="40" height="40" as="geometry" />
        </mxCell>
        <mxCell id="QV9En6UjGn9VhWlDcuHC-30" value="&lt;span style=&quot;font-size: 10px;&quot;&gt;VEM&lt;/span&gt;" style="rounded=1;whiteSpace=wrap;html=1;fillColor=#f8cecc;strokeColor=#b85450;align=center;dashed=1;verticalAlign=middle;fontFamily=Times New Roman;fontSize=12;fontColor=default;" parent="WzBGASRhdgCEX8o0v8tj-6" vertex="1">
          <mxGeometry x="122" y="55" width="40" height="40" as="geometry" />
        </mxCell>
        <mxCell id="QV9En6UjGn9VhWlDcuHC-31" value="&lt;span style=&quot;font-size: 10px;&quot;&gt;...&lt;/span&gt;" style="rounded=1;whiteSpace=wrap;html=1;fillColor=#f8cecc;strokeColor=#b85450;align=center;dashed=1;verticalAlign=middle;fontFamily=Times New Roman;fontSize=12;fontColor=default;" parent="WzBGASRhdgCEX8o0v8tj-6" vertex="1">
          <mxGeometry x="172" y="55" width="40" height="40" as="geometry" />
        </mxCell>
        <mxCell id="WzBGASRhdgCEX8o0v8tj-7" value="" style="rounded=0;whiteSpace=wrap;html=1;fontFamily=Times New Roman;dashed=1;" parent="1" vertex="1">
          <mxGeometry x="300" y="490" width="210" height="50" as="geometry" />
        </mxCell>
        <mxCell id="WzBGASRhdgCEX8o0v8tj-8" value="&lt;span style=&quot;font-size: 10px;&quot;&gt;非线性滤波&lt;/span&gt;" style="rounded=1;whiteSpace=wrap;html=1;fillColor=#fff2cc;strokeColor=#d6b656;align=center;verticalAlign=middle;fontFamily=Times New Roman;fontSize=12;fontColor=default;" parent="1" vertex="1">
          <mxGeometry x="310" y="495" width="40" height="40" as="geometry" />
        </mxCell>
        <mxCell id="WzBGASRhdgCEX8o0v8tj-9" value="&lt;span style=&quot;font-size: 10px;&quot;&gt;PDE&lt;/span&gt;&lt;br&gt;&lt;div&gt;&lt;span style=&quot;font-size: 10px;&quot;&gt;滤波&lt;/span&gt;&lt;/div&gt;" style="rounded=1;whiteSpace=wrap;html=1;fillColor=#fff2cc;strokeColor=#d6b656;align=center;verticalAlign=middle;fontFamily=Times New Roman;fontSize=12;fontColor=default;" parent="1" vertex="1">
          <mxGeometry x="360" y="495" width="40" height="40" as="geometry" />
        </mxCell>
        <mxCell id="WzBGASRhdgCEX8o0v8tj-11" value="&lt;span style=&quot;font-size: 10px;&quot;&gt;...&lt;/span&gt;" style="rounded=1;whiteSpace=wrap;html=1;fillColor=#fff2cc;strokeColor=#d6b656;align=center;verticalAlign=middle;fontFamily=Times New Roman;fontSize=12;fontColor=default;" parent="1" vertex="1">
          <mxGeometry x="411" y="495" width="40" height="40" as="geometry" />
        </mxCell>
        <mxCell id="HAwrNAH2j693whvZ-E83-3" value="&lt;span style=&quot;font-size: 12px;&quot;&gt;其它&lt;/span&gt;&lt;br&gt;&lt;div&gt;&lt;span style=&quot;font-size: 12px;&quot;&gt;滤波&lt;/span&gt;&lt;/div&gt;" style="text;html=1;align=center;verticalAlign=middle;whiteSpace=wrap;rounded=0;fontFamily=Times New Roman;fontSize=14;" parent="1" vertex="1">
          <mxGeometry x="259" y="499" width="40" height="30" as="geometry" />
        </mxCell>
        <mxCell id="HAwrNAH2j693whvZ-E83-4" value="" style="shape=curlyBracket;whiteSpace=wrap;html=1;rounded=1;labelPosition=left;verticalLabelPosition=middle;align=right;verticalAlign=middle;" parent="1" vertex="1">
          <mxGeometry x="238" y="459" width="20" height="60" as="geometry" />
        </mxCell>
      </root>
    </mxGraphModel>
  </diagram>
</mxfile>
